<mxfile host="Electron" agent="Mozilla/5.0 (Windows NT 10.0; Win64; x64) AppleWebKit/537.36 (KHTML, like Gecko) draw.io/24.7.17 Chrome/128.0.6613.36 Electron/32.0.1 Safari/537.36" version="24.7.17">
  <diagram name="PÃ¡gina-1" id="ohI9ULhbZYSJDZ3MwKnX">
    <mxGraphModel dx="2150" dy="865" grid="1" gridSize="10" guides="1" tooltips="1" connect="1" arrows="1" fold="1" page="1" pageScale="1" pageWidth="827" pageHeight="1169" math="0" shadow="0">
      <root>
        <mxCell id="0" />
        <mxCell id="1" parent="0" />
        <mxCell id="j9Oj38fq7q25ELaIdbvo-5" style="edgeStyle=orthogonalEdgeStyle;rounded=0;orthogonalLoop=1;jettySize=auto;html=1;exitX=0.5;exitY=1;exitDx=0;exitDy=0;entryX=0.5;entryY=0;entryDx=0;entryDy=0;" edge="1" parent="1" source="j9Oj38fq7q25ELaIdbvo-1" target="j9Oj38fq7q25ELaIdbvo-4">
          <mxGeometry relative="1" as="geometry" />
        </mxCell>
        <mxCell id="j9Oj38fq7q25ELaIdbvo-1" value="" style="ellipse;whiteSpace=wrap;html=1;aspect=fixed;" vertex="1" parent="1">
          <mxGeometry x="344" y="80" width="60" height="60" as="geometry" />
        </mxCell>
        <mxCell id="j9Oj38fq7q25ELaIdbvo-6" style="edgeStyle=orthogonalEdgeStyle;rounded=0;orthogonalLoop=1;jettySize=auto;html=1;exitX=0.5;exitY=1;exitDx=0;exitDy=0;entryX=0.5;entryY=0;entryDx=0;entryDy=0;" edge="1" parent="1" source="j9Oj38fq7q25ELaIdbvo-4" target="j9Oj38fq7q25ELaIdbvo-7">
          <mxGeometry relative="1" as="geometry">
            <mxPoint x="374" y="370" as="targetPoint" />
          </mxGeometry>
        </mxCell>
        <mxCell id="j9Oj38fq7q25ELaIdbvo-4" value="Esperando carga" style="rounded=1;whiteSpace=wrap;html=1;" vertex="1" parent="1">
          <mxGeometry x="314" y="210" width="120" height="60" as="geometry" />
        </mxCell>
        <mxCell id="j9Oj38fq7q25ELaIdbvo-45" style="edgeStyle=orthogonalEdgeStyle;rounded=0;orthogonalLoop=1;jettySize=auto;html=1;exitX=0.75;exitY=0;exitDx=0;exitDy=0;entryX=0.25;entryY=1;entryDx=0;entryDy=0;" edge="1" parent="1" source="j9Oj38fq7q25ELaIdbvo-7" target="j9Oj38fq7q25ELaIdbvo-36">
          <mxGeometry relative="1" as="geometry" />
        </mxCell>
        <mxCell id="j9Oj38fq7q25ELaIdbvo-7" value="Recorriendo trayecto" style="rounded=1;whiteSpace=wrap;html=1;" vertex="1" parent="1">
          <mxGeometry x="314" y="340" width="120" height="60" as="geometry" />
        </mxCell>
        <mxCell id="j9Oj38fq7q25ELaIdbvo-8" value="Se seleccion el boton&amp;nbsp; &quot;empezar ruta&quot;/&lt;br&gt;Habilitar espacio de carga,habilitar boton&amp;nbsp;&lt;br&gt;&quot;confirmar&quot;" style="text;html=1;align=center;verticalAlign=middle;resizable=0;points=[];autosize=1;strokeColor=none;fillColor=none;" vertex="1" parent="1">
          <mxGeometry x="135" y="140" width="240" height="60" as="geometry" />
        </mxCell>
        <mxCell id="j9Oj38fq7q25ELaIdbvo-9" value="Se seleccion el boton &lt;br&gt;&quot;confirmar&quot;[se cargo el robot]/&lt;br&gt;encender motor" style="text;html=1;align=center;verticalAlign=middle;resizable=0;points=[];autosize=1;strokeColor=none;fillColor=none;" vertex="1" parent="1">
          <mxGeometry x="195" y="275" width="180" height="60" as="geometry" />
        </mxCell>
        <mxCell id="j9Oj38fq7q25ELaIdbvo-53" style="edgeStyle=orthogonalEdgeStyle;rounded=0;orthogonalLoop=1;jettySize=auto;html=1;exitX=1;exitY=0.5;exitDx=0;exitDy=0;entryX=0;entryY=0.75;entryDx=0;entryDy=0;" edge="1" parent="1" source="j9Oj38fq7q25ELaIdbvo-11" target="j9Oj38fq7q25ELaIdbvo-7">
          <mxGeometry relative="1" as="geometry">
            <Array as="points">
              <mxPoint x="260" y="480" />
              <mxPoint x="260" y="385" />
            </Array>
          </mxGeometry>
        </mxCell>
        <mxCell id="j9Oj38fq7q25ELaIdbvo-11" value="Esperando orden" style="rounded=1;whiteSpace=wrap;html=1;" vertex="1" parent="1">
          <mxGeometry x="-50" y="450" width="120" height="60" as="geometry" />
        </mxCell>
        <mxCell id="j9Oj38fq7q25ELaIdbvo-16" value="Se llega a la interseccion&lt;br&gt;[hay robot de mayor prioridad]/&lt;br&gt;detener robot" style="text;html=1;align=center;verticalAlign=middle;resizable=0;points=[];autosize=1;strokeColor=none;fillColor=none;" vertex="1" parent="1">
          <mxGeometry x="40" y="370" width="190" height="60" as="geometry" />
        </mxCell>
        <mxCell id="j9Oj38fq7q25ELaIdbvo-28" style="edgeStyle=orthogonalEdgeStyle;rounded=0;orthogonalLoop=1;jettySize=auto;html=1;entryX=0.5;entryY=0;entryDx=0;entryDy=0;exitX=0;exitY=0.5;exitDx=0;exitDy=0;" edge="1" parent="1" source="j9Oj38fq7q25ELaIdbvo-7" target="j9Oj38fq7q25ELaIdbvo-11">
          <mxGeometry relative="1" as="geometry">
            <mxPoint x="350" y="500" as="sourcePoint" />
          </mxGeometry>
        </mxCell>
        <mxCell id="j9Oj38fq7q25ELaIdbvo-49" style="edgeStyle=orthogonalEdgeStyle;rounded=0;orthogonalLoop=1;jettySize=auto;html=1;exitX=0.75;exitY=1;exitDx=0;exitDy=0;entryX=0.966;entryY=0.034;entryDx=0;entryDy=0;entryPerimeter=0;" edge="1" parent="1" source="j9Oj38fq7q25ELaIdbvo-36" target="j9Oj38fq7q25ELaIdbvo-7">
          <mxGeometry relative="1" as="geometry">
            <Array as="points">
              <mxPoint x="820" y="340" />
              <mxPoint x="434" y="340" />
              <mxPoint x="434" y="342" />
            </Array>
          </mxGeometry>
        </mxCell>
        <mxCell id="j9Oj38fq7q25ELaIdbvo-36" value="Detectando objeto" style="rounded=1;whiteSpace=wrap;html=1;" vertex="1" parent="1">
          <mxGeometry x="730" y="230" width="120" height="60" as="geometry" />
        </mxCell>
        <mxCell id="j9Oj38fq7q25ELaIdbvo-37" value="Se identifica objeto/detener robot" style="text;html=1;align=center;verticalAlign=middle;resizable=0;points=[];autosize=1;strokeColor=none;fillColor=none;" vertex="1" parent="1">
          <mxGeometry x="500" y="280" width="200" height="30" as="geometry" />
        </mxCell>
        <mxCell id="j9Oj38fq7q25ELaIdbvo-39" value="Se da la orden de continuar/&lt;br&gt;seleccionar tramo avanza el robot" style="text;html=1;align=center;verticalAlign=middle;resizable=0;points=[];autosize=1;strokeColor=none;fillColor=none;" vertex="1" parent="1">
          <mxGeometry x="90" y="485" width="200" height="40" as="geometry" />
        </mxCell>
        <mxCell id="j9Oj38fq7q25ELaIdbvo-48" value="No se identifica objeto/avanzar" style="text;html=1;align=center;verticalAlign=middle;resizable=0;points=[];autosize=1;strokeColor=none;fillColor=none;" vertex="1" parent="1">
          <mxGeometry x="570" y="320" width="190" height="30" as="geometry" />
        </mxCell>
        <mxCell id="j9Oj38fq7q25ELaIdbvo-51" value="" style="curved=1;endArrow=classic;html=1;rounded=0;entryX=1;entryY=0.75;entryDx=0;entryDy=0;exitX=0.911;exitY=1.058;exitDx=0;exitDy=0;exitPerimeter=0;" edge="1" parent="1" source="j9Oj38fq7q25ELaIdbvo-7" target="j9Oj38fq7q25ELaIdbvo-7">
          <mxGeometry width="50" height="50" relative="1" as="geometry">
            <mxPoint x="460" y="470" as="sourcePoint" />
            <mxPoint x="510" y="420" as="targetPoint" />
            <Array as="points">
              <mxPoint x="480" y="430" />
            </Array>
          </mxGeometry>
        </mxCell>
        <mxCell id="j9Oj38fq7q25ELaIdbvo-52" value="llega a la interseccion&lt;br&gt;[no hay robot]/&lt;br&gt;seleccionar nuevo tramoavanzar" style="text;html=1;align=center;verticalAlign=middle;resizable=0;points=[];autosize=1;strokeColor=none;fillColor=none;" vertex="1" parent="1">
          <mxGeometry x="430" y="390" width="200" height="60" as="geometry" />
        </mxCell>
        <mxCell id="j9Oj38fq7q25ELaIdbvo-54" value="" style="curved=1;endArrow=classic;html=1;rounded=0;entryX=0.636;entryY=1.019;entryDx=0;entryDy=0;entryPerimeter=0;exitX=0.329;exitY=1.045;exitDx=0;exitDy=0;exitPerimeter=0;" edge="1" parent="1" source="j9Oj38fq7q25ELaIdbvo-7" target="j9Oj38fq7q25ELaIdbvo-7">
          <mxGeometry width="50" height="50" relative="1" as="geometry">
            <mxPoint x="380" y="520" as="sourcePoint" />
            <mxPoint x="340" y="440" as="targetPoint" />
            <Array as="points">
              <mxPoint x="374" y="460" />
              <mxPoint x="400" y="440" />
            </Array>
          </mxGeometry>
        </mxCell>
        <mxCell id="j9Oj38fq7q25ELaIdbvo-55" value="Se llega a la interseccion&lt;br&gt;[hay robot de menor prioridad]/&lt;br&gt;seleccionar nuevo tramo Avanzar" style="text;html=1;align=center;verticalAlign=middle;resizable=0;points=[];autosize=1;strokeColor=none;fillColor=none;" vertex="1" parent="1">
          <mxGeometry x="295" y="440" width="200" height="60" as="geometry" />
        </mxCell>
        <mxCell id="j9Oj38fq7q25ELaIdbvo-57" value="" style="endArrow=classic;html=1;rounded=0;exitX=1;exitY=0.25;exitDx=0;exitDy=0;" edge="1" target="j9Oj38fq7q25ELaIdbvo-58" parent="1" source="j9Oj38fq7q25ELaIdbvo-7">
          <mxGeometry width="50" height="50" relative="1" as="geometry">
            <mxPoint x="700" y="475" as="sourcePoint" />
            <mxPoint x="750" y="425" as="targetPoint" />
          </mxGeometry>
        </mxCell>
        <mxCell id="j9Oj38fq7q25ELaIdbvo-58" value="" style="ellipse;shadow=0;fillColor=default;gradientColor=none;gradientDirection=radial;" vertex="1" parent="1">
          <mxGeometry x="850" y="460" width="30" height="30" as="geometry" />
        </mxCell>
        <mxCell id="j9Oj38fq7q25ELaIdbvo-59" value="" style="ellipse;fillColor=none;" vertex="1" parent="1">
          <mxGeometry x="852.5" y="465" width="25" height="20" as="geometry" />
        </mxCell>
        <mxCell id="j9Oj38fq7q25ELaIdbvo-60" value="Se llega a destino/detener robot,informar al empleado &quot;retirar carga&quot;" style="text;html=1;align=center;verticalAlign=middle;resizable=0;points=[];autosize=1;strokeColor=none;fillColor=none;rotation=15;" vertex="1" parent="1">
          <mxGeometry x="460" y="385" width="390" height="30" as="geometry" />
        </mxCell>
      </root>
    </mxGraphModel>
  </diagram>
</mxfile>
